<svg xmlns="http://www.w3.org/2000/svg" xmlns:xlink="http://www.w3.org/1999/xlink" width="500" zoomAndPan="magnify" viewBox="0 0 375 374.999991" height="500" preserveAspectRatio="xMidYMid meet" version="1.0"><defs><clipPath id="747fbf98bf"><path d="M 37.5 37.5 L 337.5 37.5 L 337.5 337.5 L 37.5 337.5 Z M 37.5 37.5 " clip-rule="nonzero"/></clipPath></defs><path fill="#4ebf89" d="M 187.5 40.851562 C 106.507812 40.851562 40.851562 106.507812 40.851562 187.5 C 40.851562 268.492188 106.507812 334.148438 187.5 334.148438 C 268.492188 334.148438 334.148438 268.492188 334.148438 187.5 C 334.148438 106.507812 268.492188 40.851562 187.5 40.851562 Z M 267.628906 267.628906 C 246.226562 289.03125 217.769531 300.820312 187.5 300.820312 C 157.230469 300.820312 128.773438 289.03125 107.371094 267.628906 C 85.96875 246.226562 74.179688 217.769531 74.179688 187.5 C 74.179688 157.230469 85.96875 128.773438 107.371094 107.371094 C 128.773438 85.96875 157.230469 74.179688 187.5 74.179688 C 217.769531 74.179688 246.226562 85.96875 267.628906 107.371094 C 289.03125 128.773438 300.820312 157.230469 300.820312 187.5 C 300.820312 217.769531 289.03125 246.226562 267.628906 267.628906 Z M 267.628906 267.628906 " fill-opacity="1" fill-rule="nonzero"/><g clip-path="url(#747fbf98bf)"><path fill="#191717" d="M 187.5 337.5 C 104.789062 337.5 37.5 270.210938 37.5 187.5 C 37.5 104.789062 104.789062 37.5 187.5 37.5 C 270.210938 37.5 337.5 104.789062 337.5 187.5 C 337.5 270.210938 270.210938 337.5 187.5 337.5 Z M 187.5 44.203125 C 108.484375 44.203125 44.203125 108.484375 44.203125 187.5 C 44.203125 266.515625 108.484375 330.796875 187.5 330.796875 C 266.515625 330.796875 330.796875 266.515625 330.796875 187.5 C 330.796875 108.484375 266.515625 44.203125 187.5 44.203125 Z M 187.5 304.171875 C 156.335938 304.171875 127.039062 292.039062 105 270 C 82.960938 247.960938 70.828125 218.664062 70.828125 187.5 C 70.828125 156.335938 82.960938 127.039062 105 105 C 127.039062 82.960938 156.335938 70.828125 187.5 70.828125 C 218.664062 70.828125 247.960938 82.960938 270 105 C 292.039062 127.039062 304.171875 156.335938 304.171875 187.5 C 304.171875 218.664062 292.039062 247.960938 270 270 C 247.960938 292.039062 218.664062 304.171875 187.5 304.171875 Z M 187.5 77.53125 C 158.128906 77.53125 130.507812 88.96875 109.742188 109.742188 C 88.96875 130.507812 77.53125 158.128906 77.53125 187.5 C 77.53125 216.871094 88.96875 244.492188 109.742188 265.257812 C 130.515625 286.03125 158.128906 297.460938 187.5 297.460938 C 216.871094 297.460938 244.492188 286.023438 265.257812 265.257812 C 286.03125 244.484375 297.46875 216.871094 297.46875 187.5 C 297.46875 158.128906 286.03125 130.507812 265.257812 109.742188 C 244.492188 88.96875 216.871094 77.53125 187.5 77.53125 Z M 187.5 77.53125 " fill-opacity="1" fill-rule="nonzero"/></g></svg>