<svg xmlns="http://www.w3.org/2000/svg" xmlns:xlink="http://www.w3.org/1999/xlink" width="500" zoomAndPan="magnify" viewBox="0 0 375 374.999991" height="500" preserveAspectRatio="xMidYMid meet" version="1.0"><defs><clipPath id="6068ff3b8c"><path d="M 37 37.5 L 337 37.5 L 337 336.75 L 37 336.75 Z M 37 37.5 " clip-rule="nonzero"/></clipPath></defs><path fill="#e9cc79" d="M 211.144531 187.390625 L 333.4375 309.6875 L 309.515625 333.605469 L 187.222656 211.3125 L 64.925781 333.605469 L 41.007812 309.6875 L 163.300781 187.390625 L 41.007812 65.097656 L 64.925781 41.175781 L 187.222656 163.472656 L 309.515625 41.175781 L 333.4375 65.097656 Z M 211.144531 187.390625 " fill-opacity="1" fill-rule="nonzero"/><g clip-path="url(#6068ff3b8c)"><path fill="#191717" d="M 309.515625 336.949219 C 308.664062 336.949219 307.804688 336.625 307.152344 335.972656 L 187.222656 216.042969 L 67.292969 335.972656 C 66.664062 336.597656 65.8125 336.949219 64.925781 336.949219 C 64.042969 336.949219 63.191406 336.597656 62.5625 335.972656 L 38.640625 312.050781 C 37.339844 310.746094 37.339844 308.632812 38.640625 307.320312 L 158.570312 187.390625 L 38.640625 67.460938 C 37.339844 66.160156 37.339844 64.042969 38.640625 62.734375 L 62.5625 38.8125 C 63.191406 38.183594 64.042969 37.835938 64.925781 37.835938 C 65.8125 37.835938 66.664062 38.183594 67.292969 38.8125 L 187.222656 158.742188 L 307.152344 38.8125 C 308.457031 37.507812 310.570312 37.507812 311.882812 38.8125 L 335.800781 62.734375 C 337.105469 64.035156 337.105469 66.148438 335.800781 67.460938 L 215.871094 187.390625 L 335.800781 307.320312 C 336.429688 307.949219 336.78125 308.800781 336.78125 309.6875 C 336.78125 310.570312 336.429688 311.425781 335.800781 312.050781 L 311.882812 335.972656 C 311.230469 336.625 310.367188 336.949219 309.515625 336.949219 Z M 187.222656 207.96875 C 188.074219 207.96875 188.933594 208.296875 189.585938 208.949219 L 309.515625 328.878906 L 328.707031 309.6875 L 208.777344 189.757812 C 208.152344 189.128906 207.800781 188.277344 207.800781 187.390625 C 207.800781 186.507812 208.152344 185.652344 208.777344 185.027344 L 328.707031 65.097656 L 309.515625 45.90625 L 189.585938 165.835938 C 188.28125 167.140625 186.160156 167.140625 184.859375 165.835938 L 64.925781 45.90625 L 45.734375 65.097656 L 165.664062 185.027344 C 166.96875 186.332031 166.96875 188.445312 165.664062 189.757812 L 45.734375 309.6875 L 64.925781 328.878906 L 184.859375 208.949219 C 185.507812 208.296875 186.371094 207.96875 187.222656 207.96875 Z M 187.222656 207.96875 " fill-opacity="1" fill-rule="nonzero"/></g></svg>